<?xml version="1.0" standalone="no"?><!DOCTYPE svg PUBLIC "-//W3C//DTD SVG 1.1//EN" "http://www.w3.org/Graphics/SVG/1.1/DTD/svg11.dtd"><svg class="icon" width="200px" height="200.00px" viewBox="0 0 1024 1024" version="1.1" xmlns="http://www.w3.org/2000/svg"><path fill="#cccccc" d="M432.2 675.9l-33.6 125.4-82.4-22.1 33.6-125.4a468.8 468.8 0 0 1-138.1-79.9l-91.9 91.9-60.4-60.4 91.9-91.9A467.5 467.5 0 0 1 50.1 297.2l38.4-7A722 722 0 0 0 512 426.7c158 0 304.3-50.6 423.4-136.4l38.4 7a467.5 467.5 0 0 1-101.1 216.4l91.9 91.9-60.4 60.4-91.9-91.9A468.8 468.8 0 0 1 674.2 654l33.6 125.4-82.4 22.1-33.6-125.4a472.4 472.4 0 0 1-159.6 0z" /></svg>