<svg xmlns="http://www.w3.org/2000/svg" width="128" height="128" viewBox="0 0 128 128" fill="none">
  <path opacity="0.1" d="M12.8008 112C12.8008 113.697 18.1951 115.325 27.7969 116.525C37.3988 117.725 50.4217 118.4 64.0008 118.4C77.5799 118.4 90.6028 117.725 100.205 116.525C109.807 115.325 115.201 113.697 115.201 112C115.201 110.302 109.807 108.674 100.205 107.474C90.6028 106.274 77.5799 105.6 64.0008 105.6C50.4217 105.6 37.3988 106.274 27.7969 107.474C18.1951 108.674 12.8008 110.302 12.8008 112Z" fill="#4A68CC"></path>
  <path opacity="0.5" d="M14.5918 47.1042C14.5918 48.1922 15.4238 49.0242 16.5118 49.0242C17.5998 49.0242 18.4318 48.1922 18.4318 47.1042C18.4318 46.0162 17.5998 45.1842 16.5118 45.1842C15.4878 45.1842 14.5918 46.0802 14.5918 47.1042ZM115.84 104C113.408 104.64 112.896 105.152 112.32 107.52C111.68 105.088 111.168 104.576 108.8 104C111.168 103.36 111.744 102.848 112.32 100.48C112.896 102.848 113.408 103.424 115.84 104ZM25.2798 40.3842C22.1438 41.2162 21.5038 41.8562 20.6718 44.9922C19.8398 41.8562 19.1998 41.2162 16.0638 40.3842C19.1998 39.5522 19.8398 38.8482 20.6718 35.7762C21.4398 38.9122 22.1438 39.5522 25.2798 40.3842ZM102.08 29.3762C100.16 29.8882 99.7758 30.2722 99.2638 32.1922C98.7518 30.2722 98.3678 29.8882 96.4478 29.3762C98.3678 28.8642 98.7518 28.4802 99.2638 26.5602C99.7118 28.4802 100.16 28.8642 102.08 29.3762ZM110.336 19.5202C105.344 20.8002 104.32 21.8882 102.976 26.8802C101.696 21.8882 100.608 20.8642 95.6158 19.5202C100.608 18.2402 101.632 17.1522 102.976 12.1602C104.256 17.0882 105.344 18.1762 110.336 19.5202Z" fill="#4A68CC"></path>
  <path opacity="0.5" d="M107.521 68.9924V68.8644C107.521 68.7364 107.457 68.6724 107.457 68.5444V68.4804L93.6969 32.5764C91.7129 26.4964 86.0809 22.4004 79.6809 22.4004H48.3849C41.9849 22.4004 36.3529 26.4964 34.3689 32.5764L20.6089 68.4804V68.5444C20.5449 68.6724 20.5449 68.7364 20.5449 68.8644V94.7204C20.5449 102.848 27.1369 109.44 35.2649 109.44H92.8649C100.993 109.44 107.585 102.848 107.585 94.7204V69.1204C107.521 69.0564 107.521 69.0564 107.521 68.9924ZM37.9529 33.9204C37.9529 33.9204 37.9529 33.8564 38.0169 33.8564C39.4249 29.2484 43.6489 26.2404 48.3849 26.2404H79.6169C84.3529 26.2404 88.5769 29.2484 90.0489 33.7924C90.0489 33.7924 90.0489 33.8564 90.1129 33.8564L102.849 67.1364H73.6009C72.5129 67.1364 71.6809 67.9684 71.6809 69.0564C71.6809 73.2804 68.2249 76.7364 64.0009 76.7364C59.7769 76.7364 56.3209 73.2804 56.3209 69.0564C56.3209 67.9684 55.4889 67.1364 54.4009 67.1364H25.2169L37.9529 33.9204ZM103.681 94.7204C103.681 100.736 98.8169 105.6 92.8009 105.6H35.2009C29.1849 105.6 24.3209 100.736 24.3209 94.7204V71.0404H52.6729C53.5689 76.4804 58.3049 80.6404 64.0009 80.6404C69.6969 80.6404 74.4329 76.4804 75.3289 71.0404H103.681V94.7204Z" fill="#4A68CC"></path>
  <path opacity="0.2" d="M63.9997 72.3197C62.2077 72.3197 60.7997 70.9117 60.7997 69.1197V62.7197H31.6797L42.1757 35.3277L42.2397 35.1997C43.1357 32.5117 45.5677 30.7197 48.3837 30.7197H79.6157C82.4317 30.7197 84.8637 32.5117 85.7597 35.1997L85.8237 35.3277L96.3197 62.7197H67.1997V69.1197C67.1997 70.9117 65.7917 72.3197 63.9997 72.3197Z" fill="#4A68CC"></path>
</svg>