<?xml version="1.0" standalone="no"?><!DOCTYPE svg PUBLIC "-//W3C//DTD SVG 1.1//EN" "http://www.w3.org/Graphics/SVG/1.1/DTD/svg11.dtd"><svg class="icon" width="200px" height="200.00px" viewBox="0 0 1024 1024" version="1.1" xmlns="http://www.w3.org/2000/svg"><path d="M170.666667 85.333333h213.333333a85.333333 85.333333 0 0 1 85.333333 85.333334v213.333333a85.333333 85.333333 0 0 1-85.333333 85.333333H170.666667a85.333333 85.333333 0 0 1-85.333334-85.333333V170.666667a85.333333 85.333333 0 0 1 85.333334-85.333334z m0 469.333334h213.333333a85.333333 85.333333 0 0 1 85.333333 85.333333v213.333333a85.333333 85.333333 0 0 1-85.333333 85.333334H170.666667a85.333333 85.333333 0 0 1-85.333334-85.333334v-213.333333a85.333333 85.333333 0 0 1 85.333334-85.333333z m469.333333 0h213.333333a85.333333 85.333333 0 0 1 85.333334 85.333333v213.333333a85.333333 85.333333 0 0 1-85.333334 85.333334h-213.333333a85.333333 85.333333 0 0 1-85.333333-85.333334v-213.333333a85.333333 85.333333 0 0 1 85.333333-85.333333z" fill="#FFB319" /><path d="M746.666667 5.804329m60.339778 60.339779l150.849447 150.849447q60.339779 60.339779 0 120.679557l-150.849447 150.849447q-60.339779 60.339779-120.679557 0l-150.849447-150.849447q-60.339779-60.339779 0-120.679557l150.849447-150.849447q60.339779-60.339779 120.679557 0Z" fill="#FFD580" /></svg>