<?xml version="1.0" standalone="no"?><!DOCTYPE svg PUBLIC "-//W3C//DTD SVG 1.1//EN" "http://www.w3.org/Graphics/SVG/1.1/DTD/svg11.dtd"><svg class="icon" width="200px" height="200.00px" viewBox="0 0 1024 1024" version="1.1" xmlns="http://www.w3.org/2000/svg"><path fill="#101010" d="M484.693333 397.91616c0 50.752853-41.147733 91.897173-91.897173 91.897173H218.190507C167.441067 489.813333 126.293333 448.6656 126.293333 397.91616V223.310507C126.293333 172.561067 167.441067 131.413333 218.190507 131.413333h174.60224C443.5456 131.413333 484.693333 172.561067 484.693333 223.310507v174.605653zM884.053333 797.272747c0 50.752853-41.147733 91.900587-91.900586 91.900586h-174.598827c-50.752853 0-91.900587-41.147733-91.900587-91.900586v-174.598827c0-50.752853 41.147733-91.900587 91.900587-91.900587h174.598827c50.752853 0 91.900587 41.147733 91.900586 91.900587v174.598827zM484.481707 797.272747c0 50.752853-41.147733 91.900587-91.897174 91.900586H217.97888c-50.752853 0-91.897173-41.147733-91.897173-91.900586v-174.598827c0-50.752853 41.147733-91.900587 91.897173-91.900587h174.60224c50.752853 0 91.897173 41.147733 91.897173 91.900587v174.598827zM782.81728 211.27168a21.189973 21.189973 0 0 1 21.16608 21.162667v156.357973c0 11.666773-9.495893 21.162667-21.16608 21.162667h-156.35456a21.189973 21.189973 0 0 1-21.16608-21.162667V232.434347c0-11.666773 9.495893-21.162667 21.16608-21.162667h156.35456m9.12384-79.858347h-174.598827c-50.752853 0-91.900587 41.147733-91.900586 91.900587v174.598827c0 50.752853 41.147733 91.900587 91.900586 91.900586h174.598827c50.752853 0 91.900587-41.147733 91.900587-91.900586V223.31392c0-50.752853-41.147733-91.900587-91.900587-91.900587z"  /></svg>