<?xml version="1.0" standalone="no"?><!DOCTYPE svg PUBLIC "-//W3C//DTD SVG 1.1//EN" "http://www.w3.org/Graphics/SVG/1.1/DTD/svg11.dtd"><svg class="icon" width="200px" height="200.00px" viewBox="0 0 1024 1024" version="1.1" xmlns="http://www.w3.org/2000/svg"><path d="M0 0h1024v1024H0z" fill="#FFFFFF" fill-opacity="0" /><path d="M362.666667 160a138.666667 138.666667 0 0 0-134.570667 106.666667H128a32 32 0 0 0 0 64h100.096a138.496 138.496 0 1 0 134.570667-170.666667z m0 213.333333a74.666667 74.666667 0 1 1 0-149.333333 74.666667 74.666667 0 0 1 0 149.333333zM608 298.666667a32 32 0 0 1 32-32h256a32 32 0 1 1 0 64h-256a32 32 0 0 1-32-32zM896 693.333333h-100.096a138.666667 138.666667 0 1 0 0 64H896a32 32 0 1 0 0-64z m-234.666667 106.666667a74.666667 74.666667 0 1 1 0-149.333333 74.666667 74.666667 0 0 1 0 149.333333zM416 725.333333a32 32 0 0 1-32 32H128a32 32 0 1 1 0-64h256a32 32 0 0 1 32 32z" fill="#41416E" /></svg>