<svg xmlns="http://www.w3.org/2000/svg" width="100" height="100" viewBox="0 0 100 100" fill="none">
  <path fill-rule="evenodd" clip-rule="evenodd" d="M50 100C22.3858 100 0 77.6142 0 50C0 22.3858 22.3858 0 50 0C77.6142 0 100 22.3858 100 50C100 77.6142 77.6142 100 50 100ZM46.1847 20.6781H53.8068L53.2599 58.6615H46.7316L46.1847 20.6781ZM45.4999 71.1035C45.4999 73.5986 47.4823 75.5127 49.9774 75.5127C52.5409 75.5127 54.4891 73.5986 54.4891 71.1035C54.4891 68.6084 52.5409 66.6943 49.9774 66.6943C47.4823 66.6943 45.4999 68.6084 45.4999 71.1035Z" fill="#FCA21C"></path>
</svg>