<?xml version="1.0" standalone="no"?><!DOCTYPE svg PUBLIC "-//W3C//DTD SVG 1.1//EN" "http://www.w3.org/Graphics/SVG/1.1/DTD/svg11.dtd"><svg t="1714570494171" class="icon" viewBox="0 0 1024 1024" version="1.1" xmlns="http://www.w3.org/2000/svg" p-id="18471" xmlns:xlink="http://www.w3.org/1999/xlink" width="200" height="200"><path d="M807.1 140.3v37.8c0 23.6-19.6 52.4-65.2 52.4s-65.2-28.8-65.2-52.4v-45.7c0-12-9.7-21.7-21.7-21.7H347.4c-5.7 0-11.3 2.3-15.3 6.3-4.1 4.1-6.3 9.6-6.3 15.3V178c0 23.6-19.6 52.4-65.2 52.4s-65.2-28.8-65.2-52.4v-40.7c0-6.6-2.9-12.8-8-17-5.1-4.2-11.8-5.8-18.2-4.4C70.4 138.7 0.3 226.4 0 327.7v290.2c95.5-71.4 223.1-82.7 329.7-29.2 106.6 53.4 173.8 162.5 173.8 281.7h-0.3c0 28.6-3.9 57.1-11.6 84.6h87.7c7.7 0.1 14.9-4 18.8-10.7 3.9-6.7 3.9-14.9 0.1-21.6-59.8-103.4-42-234.1 43.3-317.7s216.3-98.8 318.5-37c6.7 4.1 15 4.2 21.8 0.3 6.8-3.9 11-11.1 10.9-18.9V327.7c-0.3-96.8-64.6-181.8-157.6-208.5-6.6-1.9-13.8-0.6-19.3 3.5-5.6 4.2-8.8 10.7-8.7 17.6M131.9 397.2v-72.3c0.1-16 13-28.9 28.9-28.9h671.3c16 0.1 28.9 13 28.9 28.9v72.3c-0.1 16-13 28.9-28.9 28.9H160.8c-15.9 0-28.8-12.9-28.9-28.9z m0 0" fill="#F03C47" p-id="18472"></path><path d="M788.2 110.7V70.1c0-15.7-10.9-35-43.4-35-32.4 0-43.4 19.2-43.4 35V175c0 15.7 13 35 43.4 35 30.3 0 43.4-18.6 43.4-35v-64.3M306 175V70.1c0-15.7-10.9-35-43.4-35s-43.9 19.3-43.9 35V175c0 15.7 13 35 43.4 35 30.3 0 43.9-18.6 43.9-35z m0 0M824 588.8c-110.4 0-200 89.5-200 200 0 110.4 89.5 200 200 200s200-89.5 200-200c0-53-21.1-103.9-58.6-141.4s-88.3-58.6-141.4-58.6z m117.9 164l-118 118c-12.7 12.7-33.3 12.7-46 0l-71.6-71.6c-9-8-12.8-20.4-9.9-32.1 2.9-11.7 12.1-20.9 23.8-23.8 11.7-2.9 24.1 0.9 32.1 9.9l48.7 48.7 95-95c8-9 20.4-12.8 32.1-9.9 11.7 2.9 20.9 12.1 23.8 23.8 2.9 11.7-0.9 24.1-9.9 32.1v-0.1z m0 0" fill="#F03C47" p-id="18473"></path><path d="M217.2 955h274.5c36.2-129.8-14.2-268.2-125.3-344.4C255.3 534.4 108 537.4 0 617.9v120C0.4 857.7 97.4 954.7 217.2 955z m0 0" fill="#FA6666" p-id="18474"></path><path d="M217.2 955h274.5c36.2-129.8-14.2-268.2-125.3-344.4C255.3 534.4 108 537.4 0 617.9v120C0.4 857.7 97.4 954.7 217.2 955z m0 0" fill="#FFFFFF" opacity=".13" p-id="18475"></path></svg>