<?xml version="1.0" standalone="no"?><!DOCTYPE svg PUBLIC "-//W3C//DTD SVG 1.1//EN" "http://www.w3.org/Graphics/SVG/1.1/DTD/svg11.dtd"><svg t="1714570374997" class="icon" viewBox="0 0 1024 1024" version="1.1" xmlns="http://www.w3.org/2000/svg" p-id="14460" xmlns:xlink="http://www.w3.org/1999/xlink" width="200" height="200"><path d="M816 896H224.1c-44 0-80-36-80-80V398.2c0-44 36-80 80-80H816c44 0 80 36 80 80V816c0 44-36 80-80 80z" fill="#F4F4F4" p-id="14461"></path><path d="M783.9 825H259.4c-44 0-80-36-80-80V359.5c0-44 36-80 80-80h524.5c44 0 80 36 80 80V745c0 44-36 80-80 80z" fill="#FFECB6" p-id="14462"></path><path d="M696.8 799.2H654c-5.3 0-9.6-4.3-9.6-9.7s4.3-9.7 9.6-9.7h42.8c5.3 0 9.6 4.3 9.6 9.7s-4.3 9.7-9.6 9.7z" fill="" p-id="14463"></path><path d="M764.3 805.6h-9.6c-5.3 0-9.6-4.3-9.6-9.7s4.3-9.7 9.6-9.7h9.6c30.1 0 54.6-24.6 54.6-54.9V321.4c0-30.3-24.5-54.9-54.6-54.9H201.9c-30.1 0-54.6 24.6-54.6 54.9v409.9c0 30.3 24.5 54.9 54.6 54.9h329.9c5.3 0 9.6 4.3 9.6 9.7s-4.3 9.7-9.6 9.7H201.9c-40.8 0-73.9-33.3-73.9-74.2v-410c0-40.9 33.2-74.2 73.9-74.2h562.3c40.8 0 73.9 33.3 73.9 74.2v409.9c0.1 41-33.1 74.3-73.8 74.3z" fill="" p-id="14464"></path><path d="M271 315c-45.2 0-81.9-41.9-81.9-93.5S225.9 128 271 128c47.5 0 81.9 44.7 81.9 106.4h-19.3c0-50.4-26.4-87-62.7-87-34.6 0-62.7 33.3-62.7 74.1 0 40.9 28.1 74.1 62.7 74.1V315z" fill="#FFECB6" p-id="14465"></path><path d="M251.7 315c-45.2 0-81.9-41.9-81.9-93.5s36.8-93.5 81.9-93.5c47.5 0 81.9 44.7 81.9 106.4 0 5.3-4.3 9.7-9.6 9.7s-9.6-4.3-9.6-9.7c0-50.4-26.4-87-62.7-87-34.6 0-62.7 33.3-62.7 74.1 0 40.9 28.1 74.1 62.7 74.1 5.3 0 9.6 4.3 9.6 9.7 0.1 5.3-4.3 9.7-9.6 9.7z" fill="#F7931E" p-id="14466"></path><path d="M499.1 315c-45.2 0-81.9-41.9-81.9-93.5S454 128 499.1 128c47.5 0 81.9 44.7 81.9 106.4h-19.3c0-50.4-26.4-87-62.7-87-34.6 0-62.7 33.3-62.7 74.1 0 40.9 28.1 74.1 62.7 74.1V315z" fill="#FFECB6" p-id="14467"></path><path d="M479.9 315c-45.2 0-81.9-41.9-81.9-93.5s36.8-93.5 81.9-93.5c47.5 0 81.9 44.7 81.9 106.4 0 5.3-4.3 9.7-9.6 9.7s-9.6-4.3-9.6-9.7c0-50.4-26.4-87-62.7-87-34.6 0-62.7 33.3-62.7 74.1 0 40.9 28.1 74.1 62.7 74.1 5.3 0 9.6 4.3 9.6 9.7 0 5.3-4.3 9.7-9.6 9.7z" fill="#F7931E" p-id="14468"></path><path d="M727.3 315c-45.2 0-81.9-41.9-81.9-93.5s36.8-93.5 81.9-93.5c47.5 0 81.9 44.7 81.9 106.4H790c0-50.4-26.4-87-62.7-87-34.6 0-62.7 33.3-62.7 74.1 0 40.9 28.1 74.1 62.7 74.1V315z" fill="#FFECB6" p-id="14469"></path><path d="M708 315c-45.2 0-81.9-41.9-81.9-93.5S662.9 128 708 128c47.5 0 81.9 44.7 81.9 106.4 0 5.3-4.3 9.7-9.6 9.7s-9.6-4.3-9.6-9.7c0-50.4-26.4-87-62.7-87-34.6 0-62.7 33.3-62.7 74.1 0 40.9 28.1 74.1 62.7 74.1 5.3 0 9.6 4.3 9.6 9.7 0.1 5.3-4.3 9.7-9.6 9.7z" fill="#F7931E" p-id="14470"></path><path d="M285.5 505.4h-38.6c-23 0-41.8-18.8-41.8-42v-25.8c0-23.1 18.7-42 41.8-42h38.6c23 0 41.8 18.8 41.8 42v25.8c-0.1 23.2-18.8 42-41.8 42zM246.9 415c-12.4 0-22.5 10.1-22.5 22.6v25.8c0 12.5 10.1 22.6 22.5 22.6h38.6c12.4 0 22.5-10.1 22.5-22.6v-25.8c0-12.5-10.1-22.6-22.5-22.6h-38.6z" fill="#F4BA64" p-id="14471"></path><path d="M430.1 508.6h-38.6c-23 0-41.8-18.8-41.8-42v-25.8c0-23.1 18.7-42 41.8-42h38.6c23 0 41.8 18.8 41.8 42v25.8c-0.1 23.2-18.8 42-41.8 42z m-38.6-90.3c-12.4 0-22.5 10.1-22.5 22.6v25.8c0 12.5 10.1 22.6 22.5 22.6h38.6c12.4 0 22.5-10.1 22.5-22.6v-25.8c0-12.5-10.1-22.6-22.5-22.6h-38.6z" fill="#F7931E" p-id="14472"></path><path d="M574.7 508.6h-38.6c-23 0-41.8-18.8-41.8-42v-25.8c0-23.1 18.7-42 41.8-42h38.6c23 0 41.8 18.8 41.8 42v25.8c-0.1 23.2-18.8 42-41.8 42z m-38.6-90.3c-12.4 0-22.5 10.1-22.5 22.6v25.8c0 12.5 10.1 22.6 22.5 22.6h38.6c12.4 0 22.5-10.1 22.5-22.6v-25.8c0-12.5-10.1-22.6-22.5-22.6h-38.6zM719.3 508.6h-38.6c-23 0-41.8-18.8-41.8-42v-25.8c0-23.1 18.7-42 41.8-42h38.6c23 0 41.8 18.8 41.8 42v25.8c-0.1 23.2-18.8 42-41.8 42z m-38.6-90.3c-12.4 0-22.5 10.1-22.5 22.6v25.8c0 12.5 10.1 22.6 22.5 22.6h38.6c12.4 0 22.5-10.1 22.5-22.6v-25.8c0-12.5-10.1-22.6-22.5-22.6h-38.6z" fill="#F4BA64" p-id="14473"></path><path d="M285.5 673.3h-38.6c-23 0-41.8-18.8-41.8-42v-25.8c0-23.1 18.7-42 41.8-42h38.6c23 0 41.8 18.8 41.8 42v25.8c-0.1 23.1-18.8 42-41.8 42z m-38.6-90.4c-12.4 0-22.5 10.1-22.5 22.6v25.8c0 12.5 10.1 22.6 22.5 22.6h38.6c12.4 0 22.5-10.1 22.5-22.6v-25.8c0-12.5-10.1-22.6-22.5-22.6h-38.6z" fill="#FFDB69" p-id="14474"></path><path d="M430.1 676.5h-38.6c-23 0-41.8-18.8-41.8-42v-25.8c0-23.1 18.7-42 41.8-42h38.6c23 0 41.8 18.8 41.8 42v25.8c-0.1 23.2-18.8 42-41.8 42z m-38.6-90.4c-12.4 0-22.5 10.1-22.5 22.6v25.8c0 12.5 10.1 22.6 22.5 22.6h38.6c12.4 0 22.5-10.1 22.5-22.6v-25.8c0-12.5-10.1-22.6-22.5-22.6h-38.6z" fill="#F4BA64" p-id="14475"></path><path d="M574.7 676.5h-38.6c-23 0-41.8-18.8-41.8-42v-25.8c0-23.1 18.7-42 41.8-42h38.6c23 0 41.8 18.8 41.8 42v25.8c-0.1 23.2-18.8 42-41.8 42z m-38.6-90.4c-12.4 0-22.5 10.1-22.5 22.6v25.8c0 12.5 10.1 22.6 22.5 22.6h38.6c12.4 0 22.5-10.1 22.5-22.6v-25.8c0-12.5-10.1-22.6-22.5-22.6h-38.6z" fill="#F4BA64" p-id="14476"></path><path d="M719.3 566.8h-38.6c-23 0-41.8 18.8-41.8 42v25.8c0 23.1 18.7 42 41.8 42h38.6c23 0 41.8-18.8 41.8-42v-25.8c-0.1-23.2-18.8-42-41.8-42z" fill="#F4BA64" p-id="14477"></path></svg>