<?xml version="1.0" standalone="no"?><!DOCTYPE svg PUBLIC "-//W3C//DTD SVG 1.1//EN" "http://www.w3.org/Graphics/SVG/1.1/DTD/svg11.dtd"><svg t="1715312188036" class="icon" viewBox="0 0 1024 1024" version="1.1" xmlns="http://www.w3.org/2000/svg" p-id="4253" xmlns:xlink="http://www.w3.org/1999/xlink" width="200" height="200"><path d="M511.393 937.197l221.281-238.02-64.441-60-110.79 119.22V421.876h-92.16v336.471l-110.795-119.17-64.431 60z" fill="#d81e06" p-id="4254"></path><path d="M882.262 86.803H141.739C63.463 86.803 0.007 150.259 0.007 228.535v566.929c0 78.276 63.456 141.732 141.732 141.732h157.663v-80H141.739c-34.039 0-61.732-27.693-61.732-61.732V228.536c0-34.04 27.693-61.732 61.732-61.732h740.522c34.04 0 61.732 27.693 61.732 61.732v566.929c0 34.039-27.692 61.732-61.732 61.732H724.6v80h157.662c78.276 0 141.732-63.456 141.732-141.732V228.536c0-78.277-63.456-141.733-141.732-141.733z" fill="#d81e06" p-id="4255"></path></svg>