<?xml version="1.0" standalone="no"?><!DOCTYPE svg PUBLIC "-//W3C//DTD SVG 1.1//EN" "http://www.w3.org/Graphics/SVG/1.1/DTD/svg11.dtd"><svg class="icon" width="200px" height="200.00px" viewBox="0 0 1024 1024" version="1.1" xmlns="http://www.w3.org/2000/svg"><path fill="#101010" d="M518.672 714.064m-54.672 0a54.672 54.672 0 1 0 109.344 0 54.672 54.672 0 1 0-109.344 0Z"  /><path fill="#101010" d="M518.672 590.688a36.576 36.576 0 0 1-36.944-36.944v-260.8a36.944 36.944 0 0 1 73.888 0v260.8a37.056 37.056 0 0 1-36.944 36.944z"  /><path fill="#101010" d="M512 992a484.4 484.4 0 0 1-191.856-39.824 36.32 36.32 0 0 1 28.96-66.608A409.248 409.248 0 1 0 176 742.224a36.448 36.448 0 1 1-60.096 41.264A480.112 480.112 0 1 1 512 992z"  /></svg>