<?xml version="1.0" standalone="no"?><!DOCTYPE svg PUBLIC "-//W3C//DTD SVG 1.1//EN" "http://www.w3.org/Graphics/SVG/1.1/DTD/svg11.dtd"><svg class="icon" width="200px" height="200.00px" viewBox="0 0 1024 1024" version="1.1" xmlns="http://www.w3.org/2000/svg"><path fill="#101010" d="M768 51.2h-512c-28.16 0-51.2 23.04-51.2 51.2v819.2c0 28.16 23.04 51.2 51.2 51.2h512c28.16 0 51.2-23.04 51.2-51.2v-819.2c0-28.16-23.04-51.2-51.2-51.2z m0 870.4h-512v-153.6h512v153.6z m0-204.8h-512v-614.4h512v614.4z"  /><path fill="#101010" d="M435.2 204.8h153.6c12.8 0 25.6-12.8 25.6-25.6s-12.8-25.6-25.6-25.6h-153.6c-12.8 0-25.6 12.8-25.6 25.6s12.8 25.6 25.6 25.6zM486.4 870.4h51.2c12.8 0 25.6-10.24 25.6-25.6s-12.8-25.6-25.6-25.6h-51.2c-12.8 0-25.6 10.24-25.6 25.6s12.8 25.6 25.6 25.6z"  /></svg>