<?xml version="1.0" standalone="no"?><!DOCTYPE svg PUBLIC "-//W3C//DTD SVG 1.1//EN" "http://www.w3.org/Graphics/SVG/1.1/DTD/svg11.dtd"><svg class="icon" width="200px" height="162.41px" viewBox="0 0 1261 1024" version="1.1" xmlns="http://www.w3.org/2000/svg"><path d="M1073.757375 624.412914a192.783243 192.783243 0 0 0-53.876911-77.900972 191.36543 191.36543 0 0 0-84.320515-42.61317c-20.361376-1.851034-38.596032-12.996623-25.205573-36.075476 13.39046-23.039468 38.202195-90.070537-9.452089-137.291601-47.693669-47.18168-152.021107-29.459012-225.826173 1.142128-73.805066 30.561756-69.669777 9.255171-67.385522-11.736345 2.44179-22.054876 42.219333-145.601563-79.358169-160.370453-159.188942-19.455551-363.432844 177.147912-435.583794 290.454836C-16.226087 621.144066 1.142127 736.892779 1.142127 736.892779h0.787675C14.965808 896.71186 250.795443 1024 539.871849 1024c248.589956 0 457.95374-94.284593 519.864926-222.321023a193.452766 193.452766 0 0 0 15.08396-43.912833 241.422121 241.422121 0 0 0-0.984593-133.35323h-0.078767z m-569.803466 329.602239c-205.740483 0-372.688015-110.313762-372.688015-246.3057 0-136.031322 166.750613-246.305701 372.688015-246.305701 205.976785 0 372.727399 110.313762 372.727398 246.305701 0 135.952555-166.986916 246.305701-372.727398 246.3057z" fill="#E71F19" /><path d="M1010.743444 408.196365a29.971001 29.971001 0 0 0 39.541242-16.068553c7.797974-18.313424 11.815112-38.084044 11.775728-58.012199a150.56391 150.56391 0 0 0-18.155889-70.496835 149.658085 149.658085 0 0 0-49.032714-53.561841 148.634108 148.634108 0 0 0-139.890926-12.878472 30.128535 30.128535 0 0 0-18.470958 28.080583c0 3.977754 0.787674 7.916125 2.363022 11.57881a30.640524 30.640524 0 0 0 39.777544 16.068552c10.909287-4.529126 22.606248-6.852765 34.421359-6.852765 23.315154 0 45.6851 9.294555 62.226257 25.796328 16.541157 16.541157 25.914479 38.989869 26.03263 62.423175 0.078767 11.815112-2.323639 23.512073-6.970917 34.342592a30.167919 30.167919 0 0 0 16.068553 39.659392l0.315069-0.078767z" fill="#F5AA15" /><path d="M911.260202 0.02363a353.665685 353.665685 0 0 0-99.601394 14.375053 45.015577 45.015577 0 0 0-31.97957 38.753567 45.566948 45.566948 0 0 0 23.393922 44.542972 44.897425 44.897425 0 0 0 34.342592 3.583918 262.137951 262.137951 0 0 1 73.805066-10.554834 257.293755 257.293755 0 0 1 182.346561 75.22288 260.050614 260.050614 0 0 1 76.246856 182.740398c0 25.441874-3.741452 50.726214-11.027438 75.104728a45.488181 45.488181 0 0 0 14.690123 48.205657c4.607894 3.741452 9.924694 6.577079 15.595948 8.270579a45.803251 45.803251 0 0 0 56.791304-30.246687 350.396837 350.396837 0 0 0-54.034445-310.146689 347.167373 347.167373 0 0 0-123.664838-103.579148 345.237571 345.237571 0 0 0-156.904687-36.23301z" fill="#F5AA15" /><path d="M469.493166 551.356138c-109.801774 0-198.730183 77.625286-198.730184 173.563995s88.967793 173.642762 198.730184 173.642762c109.801774 0 198.769567-77.664669 198.769566-173.603379 0-95.938709-88.967793-173.563995-198.730183-173.563994v-0.039384z m-64.904349 286.319546a68.921486 68.921486 0 0 1-63.565302-43.243309 69.866695 69.866695 0 0 1 15.359645-75.616717 69.039638 69.039638 0 0 1 117.83605 49.387168c-0.078767 18.510342-7.482904 36.193626-20.479527 49.229633a69.315323 69.315323 0 0 1-49.150866 20.243225z m130.202534-125.240186a28.356269 28.356269 0 0 1-37.335754 13.429844 28.198734 28.198734 0 0 1-7.0103-39.068637 26.190165 26.190165 0 0 1 26.66277-16.934994 25.993246 25.993246 0 0 1 23.27577 21.306585 26.308316 26.308316 0 0 1-5.434951 21.267202h-0.157535z" fill="#040000" /></svg>