<?xml version="1.0" standalone="no"?><!DOCTYPE svg PUBLIC "-//W3C//DTD SVG 1.1//EN" "http://www.w3.org/Graphics/SVG/1.1/DTD/svg11.dtd"><svg class="icon" width="200px" height="200.00px" viewBox="0 0 1024 1024" version="1.1" xmlns="http://www.w3.org/2000/svg"><path d="M882.688 794.624c-8.192 4.096-2.048 10.24 0 16.384-2.048-6.144-4.096-12.288 0-16.384z m-98.304 55.296c2.048 0 6.144 0 10.24 2.048-6.144-2.048-8.192-2.048-10.24-2.048z m-178.176 0c6.144 2.048 14.336 4.096 22.528 6.144-8.192-2.048-14.336-4.096-22.528-6.144z m43.008 8.192c-6.144 0-14.336-2.048-20.48-4.096 6.144 4.096 14.336 4.096 20.48 4.096z m-139.264-651.264c28.672 10.24 53.248 24.576 77.824 43.008 20.48 16.384 36.864 36.864 55.296 55.296-32.768-43.008-79.872-77.824-133.12-98.304z m6.144 598.016c-2.048-2.048-4.096-4.096-8.192-6.144 8.192 8.192 18.432 16.384 26.624 20.48-4.096-4.096-10.24-10.24-18.432-14.336z m61.44 34.816c6.144 2.048 12.288 4.096 16.384 6.144-6.144-2.048-12.288-4.096-16.384-6.144z m-12.288-6.144c4.096 2.048 8.192 4.096 12.288 4.096-4.096 0-8.192-2.048-12.288-4.096z m28.672 12.288c4.096 2.048 8.192 4.096 12.288 4.096-4.096-2.048-8.192-2.048-12.288-4.096zM487.424 778.24l8.192 8.192-8.192-8.192z m8.192 10.24l6.144 6.144c-2.048-4.096-4.096-6.144-6.144-6.144z m-90.112-102.4h12.288-12.288z m-145.408-12.288c8.192-2.048 14.336-2.048 18.432 0-4.096-2.048-6.144-2.048-18.432 0zM186.368 241.664c10.24-8.192 22.528-14.336 36.864-20.48-14.336 6.144-26.624 12.288-36.864 20.48z" fill="#16380A" /><path d="M929.792 819.2c-6.144-12.288 2.048-14.336 10.24-24.576l18.432-24.576c10.24-16.384 18.432-34.816 24.576-53.248 10.24-36.864 12.288-75.776 2.048-114.688-18.432-71.68-73.728-126.976-139.264-159.744 20.48-30.72 40.96-59.392 59.392-90.112 10.24-14.336 24.576-40.96-4.096-45.056-14.336-2.048-32.768-4.096-49.152-4.096 0-36.864 4.096-61.44 34.816-86.016 18.432-16.384 43.008-22.528 67.584-24.576s28.672-12.288 30.72-34.816c0-14.336 6.144-36.864-8.192-45.056-10.24-6.144-30.72-6.144-43.008-8.192-18.432 0-32.768-2.048-49.152-2.048-45.056-2.048-94.208 4.096-135.168 28.672C696.32 163.84 679.936 225.28 679.936 284.672c-90.112-126.976-266.24-167.936-411.648-126.976-131.072 38.912-245.76 153.6-233.472 296.96 4.096 40.96 16.384 79.872 36.864 114.688 10.24 16.384 24.576 30.72 36.864 47.104 6.144 8.192 2.048 8.192-2.048 18.432s-10.24 20.48-14.336 30.72c-10.24 26.624-12.288 59.392 16.384 77.824 24.576 14.336 53.248 6.144 77.824-2.048 20.48-6.144 38.912-14.336 59.392-20.48 12.288-4.096 20.48-8.192 32.768-6.144 22.528 4.096 45.056 10.24 67.584 12.288 10.24 0 20.48 2.048 30.72 2.048 6.144 0 16.384-2.048 22.528 0 8.192 2.048 8.192 0 12.288 10.24 26.624 63.488 81.92 112.64 145.408 139.264 40.96 16.384 83.968 24.576 129.024 26.624 26.624 0 53.248-2.048 79.872-8.192 20.48-4.096 28.672-2.048 47.104 4.096 34.816 12.288 79.872 34.816 112.64 12.288 34.816-24.576 18.432-65.536 4.096-94.208zM722.944 348.16c-6.144-49.152-12.288-112.64 20.48-155.648 28.672-38.912 81.92-49.152 126.976-49.152 16.384 0 32.768 0 47.104 2.048 6.144 0 32.768 0 20.48 8.192-4.096 2.048-14.336 2.048-20.48 4.096-8.192 2.048-14.336 4.096-22.528 8.192-14.336 6.144-26.624 12.288-38.912 22.528-38.912 32.768-51.2 77.824-51.2 124.928 0 10.24-4.096 32.768 4.096 36.864 4.096 2.048 20.48 0 26.624 0h20.48c-32.768 47.104-63.488 94.208-94.208 143.36-30.72-47.104-63.488-94.208-94.208-143.36 18.432-2.048 36.864-2.048 55.296-2.048z m196.608 405.504c-8.192 12.288-18.432 24.576-28.672 34.816-14.336 12.288-10.24 22.528-2.048 38.912 8.192 16.384 34.816 59.392-2.048 53.248-32.768-6.144-61.44-22.528-92.16-28.672-16.384-2.048-30.72 4.096-45.056 6.144-20.48 4.096-40.96 6.144-61.44 4.096-106.496-2.048-215.04-59.392-245.76-165.888-4.096-12.288-2.048-12.288-14.336-10.24-14.336 2.048-26.624 2.048-40.96 2.048-20.48 0-43.008-2.048-63.488-4.096-18.432-2.048-38.912-12.288-55.296-10.24-32.768 2.048-67.584 22.528-100.352 30.72-10.24 2.048-26.624 10.24-36.864 4.096-12.288-6.144-2.048-24.576 2.048-34.816 6.144-16.384 16.384-32.768 22.528-49.152 6.144-22.528-14.336-30.72-26.624-47.104-24.576-28.672-40.96-61.44-49.152-96.256-18.432-81.92 16.384-161.792 77.824-217.088 135.168-118.784 378.88-106.496 487.424 43.008-24.576 0-43.008 12.288-26.624 36.864l36.864 55.296c14.336 22.528 28.672 45.056 45.056 65.536 14.336 20.48 26.624 40.96 40.96 61.44 10.24 16.384 26.624 32.768 43.008 12.288 14.336-16.384 20.48-36.864 34.816-51.2 6.144-8.192 2.048-6.144 10.24-6.144 16.384 2.048 40.96 22.528 53.248 34.816 67.584 57.344 88.064 155.648 36.864 237.568z" fill="#16380A" /><path d="M692.224 450.56c-10.24 116.736-114.688 202.752-223.232 229.376-53.248 14.336-108.544 12.288-161.792 2.048-12.288-2.048-26.624-10.24-38.912-8.192-14.336 2.048-28.672 6.144-40.96 12.288-22.528 8.192-47.104 20.48-69.632 24.576-8.192 2.048-24.576 6.144-30.72-2.048-8.192-12.288 4.096-32.768 6.144-38.912 10.24-20.48 32.768-51.2 14.336-67.584-38.912-40.96-69.632-88.064-73.728-147.456-10.24-126.976 94.208-225.28 206.848-258.048 126.976-36.864 286.72 2.048 366.592 110.592-20.48 0-43.008 6.144-30.72 30.72 6.144 12.288 59.392 88.064 75.776 112.64z" fill="#99E666" /><path d="M278.528 368.64c53.248 0 53.248 81.92 0 81.92-51.2 0-51.2-81.92 0-81.92zM483.328 368.64c53.248 0 53.248 81.92 0 81.92-51.2 0-51.2-81.92 0-81.92z" fill="#0C631F" /><path d="M950.272 655.36c0 34.816-8.192 69.632-28.672 98.304-8.192 12.288-16.384 22.528-26.624 32.768-14.336 14.336-12.288 18.432-4.096 36.864 8.192 18.432 34.816 67.584-6.144 59.392-30.72-6.144-57.344-22.528-86.016-28.672-16.384-4.096-28.672 2.048-45.056 4.096-18.432 4.096-40.96 4.096-59.392 4.096-28.672 0-57.344-4.096-83.968-12.288-40.96-12.288-81.92-32.768-112.64-61.44-36.864-34.816-63.488-83.968-61.44-137.216 2.048-61.44 40.96-116.736 90.112-149.504 26.624-18.432 55.296-32.768 88.064-40.96 16.384-4.096 32.768-8.192 51.2-10.24 6.144 0 18.432-4.096 24.576-2.048 2.048 4.096 22.528 34.816 28.672 45.056 10.24 14.336 20.48 30.72 30.72 45.056 18.432 20.48 30.72 4.096 40.96-12.288 6.144-10.24 12.288-18.432 18.432-28.672 2.048-2.048 8.192-16.384 12.288-16.384 12.288-6.144 45.056 18.432 51.2 24.576 14.336 10.24 26.624 24.576 38.912 38.912 24.576 28.672 38.912 69.632 38.912 110.592z" fill="#E7EAEB" /><path d="M780.288 595.968c-45.056 0-45.056 71.68 0 71.68s45.056-71.68 0-71.68zM612.352 595.968c-45.056 0-45.056 71.68 0 71.68s45.056-71.68 0-71.68z" fill="#6E7373" /><path d="M948.224 147.456c-22.528 14.336-86.016 34.816-100.352 49.152-26.624 26.624-36.864 61.44-36.864 102.4 0 4.096-2.048 43.008 0 45.056s40.96 0 49.152 0c-32.768 47.104-69.632 100.352-100.352 149.504-30.72-47.104-65.536-98.304-96.256-147.456h55.296c-6.144-59.392-8.192-137.216 43.008-178.176 47.104-32.768 135.168-34.816 186.368-20.48z" fill="#81DB61" /><path d="M835.584 210.944c-14.336 18.432-22.528 38.912-24.576 59.392 2.048-22.528 10.24-43.008 24.576-59.392z" fill="#81DB61" /></svg>